<svg
    width="22"
    height="22"
    viewBox="0 0 24 24"
    fill="none"
    xmlns="http://www.w3.org/2000/svg"
>
    <path
        fill="currentColor"
        d="M12 2c5.523 0 10 4.477 10 10s-4.477 10-10 10S2 17.523 2 12 6.477 2 12 2M9.027 13c.205 3.946 1.588 7 2.973 7s2.768-3.054 2.973-7zm-4.963 0a8 8 0 0 0 4.342 6.147q-.18-.376-.333-.766C7.5 16.904 7.12 15.03 7.024 13zm12.912 0c-.096 2.031-.476 3.904-1.05 5.38q-.151.392-.333.767A8 8 0 0 0 19.936 13zm-1.383-8.147q.18.376.334.766c.573 1.477.953 3.35 1.049 5.381h2.96a8 8 0 0 0-4.343-6.147M12 4c-1.385 0-2.768 3.054-2.973 7h5.946C14.768 7.054 13.385 4 12 4m-3.594.853A8 8 0 0 0 4.064 11h2.96c.096-2.031.476-3.904 1.05-5.38q.151-.393.332-.767"
    />
</svg>