<svg
xmlns="http://www.w3.org/2000/svg"
viewBox="0 0 24 24"
fill="none"
>

<path fill="currentColor" d="M10.705 13.635c-.05.52.39.945.912.945s.912-.431 1.027-.94a1.96 1.96 0 0 1 .493-.94q.295-.309.756-.592.523-.312.903-.71.381-.397.585-.91.21-.51.21-1.158 0-.96-.465-1.66a3 3 0 0 0-1.29-1.085q-.825-.38-1.91-.38-.993 0-1.818.363A3.1 3.1 0 0 0 8.79 7.66a2.8 2.8 0 0 0-.364.77c-.168.552.317 1.037.893 1.037h.041c.522 0 .9-.448 1.192-.88q.239-.354.596-.523.364-.177.767-.177.438 0 .79.182.358.182.568.512t.21.778q0 .398-.159.722a2 2 0 0 1-.437.58 4 4 0 0 1-.62.47 4.2 4.2 0 0 0-.857.688q-.352.369-.546.978a4 4 0 0 0-.159.838m.074 4.126q.37.364.88.364.342 0 .62-.165.284-.17.454-.454.177-.285.177-.631 0-.511-.375-.875a1.2 1.2 0 0 0-.875-.364q-.512 0-.881.364-.37.363-.37.875 0 .523.37.886"></path>

<path fill="currentColor" fill-rule="evenodd" d="M22 12c0 5.523-4.477 10-10 10S2 17.523 2 12 6.477 2 12 2s10 4.477 10 10m-2 0a8 8 0 1 1-16 0 8 8 0 0 1 16 0" clip-rule="evenodd"></path>

</svg>